<svg width="130" height="130" viewBox="0 0 130 130" fill="none" xmlns="http://www.w3.org/2000/svg">
<path d="M109.22 66.54C102.8 56.64 90.2199 51.43 78.5399 52.9C66.8599 54.37 56.2999 62 50.3899 72.25C44.4799 82.5 42.9999 94.94 45.3199 106.51C51.1299 102.67 55.7199 101.23 61.5199 97.38C61.2999 93.28 60.8899 89.71 61.5199 85.64C62.0071 81.5262 63.7534 77.6633 66.5199 74.58C68.6594 72.5079 71.2068 70.9039 73.9999 69.87C78.1899 68.18 82.9199 67.27 87.2499 68.59C91.3399 69.84 94.5999 72.9 97.6899 75.87C102.1 73.12 105 69.67 109.22 66.54Z" fill="#FF4834"/>
<path d="M27.59 90.84C31.3566 90.84 34.41 87.7866 34.41 84.02C34.41 80.2534 31.3566 77.2 27.59 77.2C23.8234 77.2 20.77 80.2534 20.77 84.02C20.77 87.7866 23.8234 90.84 27.59 90.84Z" fill="#3C00E4"/>
<path d="M103.33 43.93C100.227 46.2415 97.4777 48.9939 95.17 52.1C90.5049 58.3058 87.8526 65.7915 87.57 73.55C87.4235 77.4073 87.8447 81.2652 88.82 85C88.826 85.0184 88.8282 85.0378 88.8264 85.0571C88.8246 85.0763 88.8188 85.095 88.8094 85.1119C88.8 85.1288 88.7872 85.1436 88.7718 85.1553C88.7564 85.1671 88.7388 85.1755 88.72 85.18C88.6815 85.1899 88.6408 85.1851 88.6057 85.1666C88.5706 85.1481 88.5436 85.1173 88.53 85.08C87.3771 81.3308 86.8302 77.4216 86.91 73.5C87.0602 65.5859 89.7568 57.9309 94.6 51.67C97.0007 48.5569 99.8918 45.855 103.16 43.67C103.188 43.6425 103.226 43.6271 103.265 43.6271C103.304 43.6271 103.342 43.6425 103.37 43.67C103.395 43.6838 103.415 43.7051 103.428 43.7308C103.441 43.7566 103.445 43.7856 103.441 43.814C103.437 43.8424 103.424 43.8687 103.404 43.8895C103.384 43.9103 103.358 43.9244 103.33 43.93Z" fill="black"/>
<path d="M66.0799 23.38C67.2472 24.5453 68.2772 25.8404 69.1499 27.24C70.0125 28.6485 70.7551 30.127 71.3699 31.66C72.5417 34.7361 73.3863 37.927 73.8899 41.18C74.4111 44.4263 74.6387 47.7129 74.5699 51C74.5125 54.2803 74.1476 57.5479 73.4799 60.76C73.4763 60.7799 73.4688 60.7989 73.4577 60.8158C73.4466 60.8327 73.4323 60.8471 73.4155 60.8583C73.3986 60.8696 73.3798 60.8772 73.3599 60.881C73.34 60.8847 73.3196 60.8844 73.2999 60.88C73.2616 60.8705 73.2285 60.8463 73.2079 60.8126C73.1873 60.7789 73.1809 60.7384 73.1899 60.7C73.6841 57.4906 73.9248 54.2472 73.9099 51C73.9035 47.7571 73.636 44.52 73.1099 41.32C72.6103 38.1198 71.8033 34.9752 70.6999 31.93C69.6259 28.8732 67.9837 26.0469 65.8599 23.6C65.845 23.5869 65.8331 23.5707 65.8249 23.5526C65.8167 23.5345 65.8125 23.5149 65.8125 23.495C65.8125 23.4751 65.8167 23.4555 65.8249 23.4374C65.8331 23.4193 65.845 23.4031 65.8599 23.39C65.8732 23.3742 65.8897 23.3613 65.9083 23.3522C65.9268 23.3431 65.9471 23.3379 65.9677 23.3369C65.9884 23.336 66.009 23.3393 66.0283 23.3467C66.0476 23.3542 66.0652 23.3655 66.0799 23.38Z" fill="black"/>
</svg>
