<svg width="130" height="130" viewBox="0 0 130 130" fill="none" xmlns="http://www.w3.org/2000/svg">
<path d="M67.8701 48C39.9301 63.39 50.4701 96.23 50.4701 96.23L122.16 57.75C122.16 57.75 95.8101 32.63 67.8701 48Z" fill="#96f0b6"/>
<path d="M112.56 41.8C112.588 41.8268 112.61 41.8596 112.624 41.8959C112.638 41.9323 112.643 41.9713 112.64 42.01C112.64 42.13 112.5 42.2 112.39 42.25C109.652 43.3856 106.851 44.3606 104 45.17C104.32 45.07 108.84 51.53 109.35 52.17C109.456 52.2894 109.519 52.4407 109.53 52.6C109.53 52.96 109 53.05 108.65 52.94C108.183 52.7773 107.747 52.5373 107.36 52.23C106.113 51.35 104.893 50.43 103.7 49.47C103.187 48.9974 102.635 48.5691 102.05 48.19C102.003 48.1486 101.946 48.1189 101.885 48.1033C101.824 48.0877 101.761 48.0867 101.699 48.1003C101.638 48.1139 101.581 48.1418 101.532 48.1818C101.484 48.2217 101.445 48.2725 101.42 48.33C101.01 48.9035 100.629 49.4976 100.28 50.11C99.2197 51.8563 97.9904 53.4942 96.6099 55C96.5745 55.0533 96.5213 55.0923 96.4599 55.11C96.4128 55.1146 96.3655 55.1046 96.3244 55.0813C96.2832 55.0581 96.2502 55.0227 96.2299 54.98C96.2099 54.8878 96.2099 54.7923 96.2299 54.7C96.298 54.1218 96.4253 53.5522 96.6099 53L97.1199 51.07C97.4303 50.1049 97.6873 49.1234 97.8899 48.13C97.9799 47.58 98.1199 47.51 97.6099 47.45C97.2499 47.45 96.4599 47.89 96.1099 48.02C94.1099 48.75 92.1099 49.4 90.1099 50.02C89.8699 50.09 89.5699 50.14 89.4199 49.94C89.2699 49.74 89.4199 49.38 89.6799 49.19C90.643 48.3654 91.6808 47.6322 92.7799 47L96.5999 44.68C95.4582 43.3671 94.1886 42.1712 92.8099 41.11C91.4199 39.84 90.0499 38.54 88.6399 37.29C88.3999 37.06 88.1299 36.72 88.2999 36.43C88.4699 36.14 88.9599 36.24 89.2999 36.43C92.3873 37.9592 95.5668 39.2951 98.8199 40.43C98.8817 40.4499 98.9481 40.4499 99.0099 40.43C99.1399 40.38 99.1299 40.19 99.0899 40.06C98.8399 39.06 98.5699 38.06 98.2999 37.13C97.5484 34.7358 97.0523 32.2687 96.8199 29.77C96.8199 29.6 96.8199 29.39 96.9899 29.35C97.1599 29.31 97.2599 29.46 97.3499 29.59C98.2131 30.8825 99.0107 32.2175 99.7399 33.59C100.47 35.05 101.16 36.53 101.85 38.02C101.861 38.0865 101.889 38.1489 101.933 38.2004C101.976 38.2518 102.033 38.2904 102.097 38.312C102.16 38.3336 102.229 38.3374 102.295 38.323C102.36 38.3085 102.421 38.2764 102.47 38.23C104.948 37.0937 107.496 36.1184 110.1 35.31C110.151 35.2899 110.208 35.2899 110.26 35.31C110.41 35.36 110.36 35.58 110.26 35.71C108.665 37.4942 106.947 39.1649 105.12 40.71C105.03 40.79 104.93 40.91 104.97 41.02C104.996 41.063 105.033 41.0985 105.076 41.1231C105.12 41.1476 105.17 41.1603 105.22 41.16C107.498 41.6077 109.82 41.7922 112.14 41.71C112.252 41.685 112.368 41.685 112.48 41.71L112.56 41.8Z" fill="#FF4834"/>
<path d="M7.70996 57.79C9.44889 54.4606 11.7454 51.4537 14.5 48.9C17.2214 46.2743 20.4508 44.2325 23.99 42.9C27.5873 41.5554 31.5576 41.6054 35.12 43.04C36.8961 43.7812 38.4523 44.9656 39.64 46.48C40.7983 48.0024 41.6353 49.7443 42.1 51.6C42.987 55.2879 43.0563 59.1253 42.3031 62.8428C41.5499 66.5604 39.9925 70.0681 37.74 73.12C37.1551 73.8692 36.5309 74.5869 35.87 75.27C35.1674 75.9534 34.3731 76.5356 33.51 77C32.65 77.4739 31.7117 77.789 30.74 77.93C30.2236 78.0133 29.6954 77.9841 29.1914 77.8443C28.6874 77.7044 28.2196 77.4574 27.82 77.12C27.1012 76.3782 26.6628 75.4095 26.58 74.38C26.4678 73.4104 26.5015 72.4295 26.68 71.47C27.0626 69.5993 27.7375 67.8006 28.68 66.14C30.5011 62.8076 33.1538 60.0033 36.38 58C39.6028 56.0126 43.1952 54.6994 46.94 54.14C50.6739 53.5604 54.4837 53.6893 58.17 54.52C61.8649 55.36 65.3301 57.0021 68.32 59.33C69.8045 60.503 71.147 61.8454 72.32 63.33C73.4975 64.8155 74.5038 66.429 75.32 68.14C76.8498 71.5674 77.7248 75.2508 77.9 79C78.1028 82.743 77.8272 86.4967 77.08 90.17C76.714 92.0073 76.2365 93.8207 75.65 95.6C75.0814 97.3888 74.3238 99.1118 73.39 100.74C73.3675 100.773 73.3335 100.796 73.2947 100.806C73.2558 100.815 73.2149 100.809 73.18 100.79C73.1469 100.768 73.1235 100.734 73.1142 100.695C73.105 100.656 73.1106 100.615 73.13 100.58C74.0357 98.9658 74.7665 97.2594 75.31 95.49C75.8767 93.7197 76.3342 91.9163 76.68 90.09C77.3879 86.4386 77.6265 82.7118 77.39 79C77.173 75.3028 76.2817 71.6765 74.76 68.3C73.9698 66.6373 72.9971 65.0677 71.86 63.62C70.7091 62.1841 69.3934 60.8885 67.94 59.76C62.13 55.17 54.29 53.61 47.05 54.76C43.4023 55.3154 39.9052 56.6047 36.77 58.55C33.6453 60.5035 31.0789 63.2318 29.32 66.47C28.4349 68.0658 27.804 69.7898 27.45 71.58C27.2889 72.4575 27.2619 73.3544 27.37 74.24C27.4392 75.0874 27.7914 75.8869 28.37 76.51C28.6856 76.77 29.0534 76.959 29.4486 77.0643C29.8437 77.1695 30.2568 77.1885 30.66 77.12C31.5364 76.9957 32.3832 76.7145 33.16 76.29C33.958 75.8768 34.695 75.3552 35.35 74.74C35.9896 74.0861 36.5938 73.3985 37.16 72.68C39.3531 69.7183 40.8756 66.3148 41.6215 62.7057C42.3675 59.0967 42.3192 55.3685 41.48 51.78C41.0436 50.0105 40.2545 48.3472 39.16 46.89C38.0373 45.4528 36.568 44.3242 34.89 43.61C31.4657 42.2185 27.6442 42.1614 24.18 43.45C20.7032 44.7248 17.5172 46.6834 14.81 49.21C12.0603 51.7079 9.75719 54.657 7.99996 57.93C7.97807 57.9575 7.94719 57.9765 7.91272 57.9836C7.87824 57.9907 7.84238 57.9854 7.81139 57.9688C7.7804 57.9521 7.75627 57.925 7.74321 57.8923C7.73015 57.8597 7.729 57.8234 7.73996 57.79H7.70996Z" fill="black"/>
</svg>
